<svg xmlns="http://www.w3.org/2000/svg" width="47.944" height="47.944" viewBox="0 0 47.944 47.944">
  <g id="Group_82169" data-name="Group 82169" transform="translate(-173.863 -165.066)">
    <path id="Path" d="M23.825,0h.294A26.774,26.774,0,0,1,36.907,2.882a19.6,19.6,0,0,1,8.155,8.155,26.775,26.775,0,0,1,2.882,12.788v.294a26.775,26.775,0,0,1-2.882,12.788,19.6,19.6,0,0,1-8.155,8.155,26.775,26.775,0,0,1-12.788,2.882h-.294a26.775,26.775,0,0,1-12.788-2.882,19.6,19.6,0,0,1-8.155-8.155A26.774,26.774,0,0,1,0,24.119v-.294A26.774,26.774,0,0,1,2.882,11.037a19.6,19.6,0,0,1,8.155-8.155A26.774,26.774,0,0,1,23.825,0Z" transform="translate(173.863 165.066)" fill="#9aa1aa"/>
    <g id="user-27" transform="translate(188.112 177.265)">
      <path id="Path_102916" data-name="Path 102916" d="M92.646,11.228a5.432,5.432,0,0,0,3.97-1.645A5.432,5.432,0,0,0,98.26,5.614a5.433,5.433,0,0,0-1.645-3.969,5.613,5.613,0,0,0-7.939,0,5.432,5.432,0,0,0-1.645,3.969,5.432,5.432,0,0,0,1.645,3.97A5.434,5.434,0,0,0,92.646,11.228Zm0,0" transform="translate(-83.069)" fill="#fff"/>
      <path id="Path_102917" data-name="Path 102917" d="M19.4,253.981a13.865,13.865,0,0,0-.189-1.473,11.6,11.6,0,0,0-.362-1.481,7.316,7.316,0,0,0-.609-1.381,5.214,5.214,0,0,0-.918-1.2A4.047,4.047,0,0,0,16,247.621a4.558,4.558,0,0,0-1.683-.3,1.709,1.709,0,0,0-.912.387c-.274.178-.593.385-.951.613a5.446,5.446,0,0,1-1.23.542,4.775,4.775,0,0,1-3.009,0,5.433,5.433,0,0,1-1.229-.542c-.354-.226-.674-.432-.951-.613a1.707,1.707,0,0,0-.912-.387,4.551,4.551,0,0,0-1.683.305,4.044,4.044,0,0,0-1.319.829,5.213,5.213,0,0,0-.918,1.2A7.33,7.33,0,0,0,.6,251.027a11.629,11.629,0,0,0-.362,1.481,13.817,13.817,0,0,0-.189,1.473c-.031.446-.047.909-.047,1.376a3.87,3.87,0,0,0,1.15,2.928,4.138,4.138,0,0,0,2.962,1.081H15.335a4.137,4.137,0,0,0,2.962-1.081,3.869,3.869,0,0,0,1.15-2.928C19.447,254.888,19.431,254.425,19.4,253.981Zm0,0" transform="translate(0 -236.057)" fill="#fff"/>
    </g>
  </g>
</svg>
