<svg xmlns="http://www.w3.org/2000/svg" width="18.661" height="19.708" viewBox="0 0 18.661 19.708">
  <g id="megaphone-7" transform="translate(-2.521 0.156)">
    <path id="Path_104885" data-name="Path 104885" d="M14.591,15.577c-1.871-2.752-4.369-4.215-5.678-3.319a1.509,1.509,0,0,0-.37.372c0,.011-3.029,6.141-3.029,6.141L3.823,19.916a2.389,2.389,0,0,0-.634,3.319l.076.112a2.393,2.393,0,0,0,3.3.634l2.716,4a1.542,1.542,0,0,0,2.114.406,1.431,1.431,0,0,0,.634-.972,1.514,1.514,0,0,0-.235-1.141l-2.393-3.53s5.657-.45,5.678-.459a1.355,1.355,0,0,0,.493-.211c.672-.457.913-1.414.681-2.7a10.344,10.344,0,0,0-1.666-3.8ZM3.88,22.931,3.8,22.819a1.647,1.647,0,0,1,.44-2.289L5.7,19.536l1.928,2.839-1.461.994A1.649,1.649,0,0,1,3.88,22.931Zm7.31,3.761a.782.782,0,0,1-1.3.873L7.184,23.576l1.089-.74.287-.023Zm-2.858-4.6-2.1-3.095,2-4.086a10.173,10.173,0,0,0,1.672,3.849,10.205,10.205,0,0,0,2.959,2.974Zm6.236-.493c-1.01-.066-2.655-1.2-4.048-3.257s-1.845-4-1.535-4.961a.9.9,0,0,1,.846-.634c1,0,2.708,1.146,4.141,3.257a9.018,9.018,0,0,1,1.556,3.517C15.842,21.595,14.568,21.595,14.568,21.595Z" transform="translate(0 -9.38)" fill="#034243" stroke="#034243" stroke-width="0.5"/>
    <path id="Path_104886" data-name="Path 104886" d="M39.958,29.171a1.985,1.985,0,0,0-1.505.311.371.371,0,1,0,.423.611,1.268,1.268,0,1,1,1.425,2.1.37.37,0,0,0,.211.674.362.362,0,0,0,.211-.063,2.006,2.006,0,0,0-.75-3.632Z" transform="translate(-28.009 -22.896)" fill="#034243" stroke="#034243" stroke-width="0.5"/>
    <path id="Path_104887" data-name="Path 104887" d="M59.592,3.624h.036A.37.37,0,0,0,60,3.292L60.282.519a.37.37,0,1,0-.736-.076l-.283,2.775A.37.37,0,0,0,59.592,3.624Z" transform="translate(-44.545 0)" fill="#034243" stroke="#034243" stroke-width="0.5"/>
    <path id="Path_104888" data-name="Path 104888" d="M71.3,13.449a.372.372,0,0,0-.514-.106L68.21,15.035a.37.37,0,0,0,.211.679.376.376,0,0,0,.211-.059l2.577-1.691A.37.37,0,0,0,71.3,13.449Z" transform="translate(-51.472 -10.396)" fill="#034243" stroke="#034243" stroke-width="0.5"/>
    <path id="Path_104889" data-name="Path 104889" d="M74.371,33.4l-3-.539a.37.37,0,0,0-.131.729l3,.539H74.3a.37.37,0,0,0,.066-.736Z" transform="translate(-53.753 -25.829)" fill="#034243" stroke="#034243" stroke-width="0.5"/>
  </g>
</svg>
