<svg id="info" xmlns="http://www.w3.org/2000/svg" width="16.086" height="16.086" viewBox="0 0 16.086 16.086">
  <path id="Path_104828" data-name="Path 104828" d="M8.043,0a8.043,8.043,0,1,0,8.043,8.043A8.043,8.043,0,0,0,8.043,0Zm0,14.746a6.7,6.7,0,1,1,6.7-6.7A6.7,6.7,0,0,1,8.043,14.746Z" fill="#034243"/>
  <path id="Path_104829" data-name="Path 104829" d="M11.341,10h-.67a.67.67,0,0,0,0,1.341h.67v4.022a.67.67,0,1,0,1.341,0V11.341A1.341,1.341,0,0,0,11.341,10Z" transform="translate(-3.297 -3.297)" fill="#034243"/>
  <circle id="Ellipse_43" data-name="Ellipse 43" cx="1.005" cy="1.005" r="1.005" transform="translate(7.038 3.351)" fill="#034243"/>
</svg>
