<svg xmlns="http://www.w3.org/2000/svg" width="40" height="40" viewBox="0 0 40 40">
  <g id="ic_email" style="isolation: isolate">
    <g id="ic">
      <g id="Fill">
        <g id="Shape_Type" data-name="Shape Type">
          <path id="Rounded" d="M12,0H28A12,12,0,0,1,40,12V28A12,12,0,0,1,28,40H12A12,12,0,0,1,0,28V12A12,12,0,0,1,12,0Z" fill="#22c1d3" opacity="0.087"/>
        </g>
      </g>
      <g id="whatsapp" transform="translate(10.041 10)">
        <path id="Subtraction_1" data-name="Subtraction 1" d="M-7458.041-1944.137v0l1.759-5.276a10.036,10.036,0,0,1-1.408-5.129,10.064,10.064,0,0,1,10.053-10.053,10.065,10.065,0,0,1,10.055,10.053,9.986,9.986,0,0,1-2.945,7.109,9.988,9.988,0,0,1-7.11,2.944,10.068,10.068,0,0,1-4.675-1.153l-5.728,1.506Zm6.61-16.932a.959.959,0,0,0-.681.281l-.62.621a3.159,3.159,0,0,0-.991,3.077,6.758,6.758,0,0,0,1.961,3.077l1.8,1.8,1.8,1.8a5.732,5.732,0,0,0,3.807,2.046,3.285,3.285,0,0,0,2.347-1.078l.622-.62a.958.958,0,0,0,.168-1.13,7.3,7.3,0,0,0-2.175-1.881,1.127,1.127,0,0,0-.541-.159.581.581,0,0,0-.535.307,8.861,8.861,0,0,1-.7.764,1.514,1.514,0,0,1-.851.3,1.409,1.409,0,0,1-1-.486l-1.4-1.4-1.4-1.4a1.3,1.3,0,0,1-.184-1.849,8.024,8.024,0,0,1,.752-.691l.009-.007a.571.571,0,0,0,.284-.353.978.978,0,0,0-.134-.724,7.336,7.336,0,0,0-1.881-2.175A.961.961,0,0,0-7451.431-1961.068Z" transform="translate(7458.041 1964.596)" fill="#22c1d3"/>
      </g>
    </g>
  </g>
</svg>
