<svg xmlns="http://www.w3.org/2000/svg" width="54" height="55" viewBox="0 0 54 55">
  <g id="Group_82580" data-name="Group 82580" transform="translate(-314 -14)">
    <g id="Group_82579" data-name="Group 82579">
      <g id="Group_75252" data-name="Group 75252" transform="translate(314 14)">
        <path id="Oval" d="M27,0A27.253,27.253,0,0,1,54,27.5,27.253,27.253,0,0,1,27,55,27.253,27.253,0,0,1,0,27.5,27.253,27.253,0,0,1,27,0Z" fill="#fff" opacity="0.365"/>
      </g>
    </g>
    <g id="user-27" transform="translate(331.991 30.702)">
      <path id="Path_102916" data-name="Path 102916" d="M92.233,10.4a5.033,5.033,0,0,0,3.678-1.524A5.033,5.033,0,0,0,97.435,5.2a5.034,5.034,0,0,0-1.524-3.678,5.2,5.2,0,0,0-7.356,0A5.033,5.033,0,0,0,87.031,5.2a5.033,5.033,0,0,0,1.524,3.678A5.034,5.034,0,0,0,92.233,10.4Zm0,0" transform="translate(-83.36)" fill="#fff"/>
      <path id="Path_102917" data-name="Path 102917" d="M17.974,253.491a12.846,12.846,0,0,0-.175-1.365,10.749,10.749,0,0,0-.336-1.372,6.777,6.777,0,0,0-.564-1.28,4.829,4.829,0,0,0-.851-1.108,3.75,3.75,0,0,0-1.222-.768,4.223,4.223,0,0,0-1.56-.282,1.583,1.583,0,0,0-.845.359c-.253.165-.55.356-.881.568a5.045,5.045,0,0,1-1.14.5,4.425,4.425,0,0,1-2.788,0,5.033,5.033,0,0,1-1.139-.5c-.328-.209-.624-.4-.882-.568a1.581,1.581,0,0,0-.845-.359,4.216,4.216,0,0,0-1.56.283,3.746,3.746,0,0,0-1.222.768,4.83,4.83,0,0,0-.85,1.108,6.791,6.791,0,0,0-.564,1.28,10.775,10.775,0,0,0-.335,1.372,12.8,12.8,0,0,0-.175,1.365c-.029.413-.043.842-.043,1.275a3.586,3.586,0,0,0,1.065,2.713,3.834,3.834,0,0,0,2.745,1h10.4a3.833,3.833,0,0,0,2.744-1,3.584,3.584,0,0,0,1.065-2.713C18.018,254.332,18,253.9,17.974,253.491Zm0,0" transform="translate(0 -236.885)" fill="#fff"/>
    </g>
  </g>
</svg>
