<svg xmlns="http://www.w3.org/2000/svg" width="42" height="42" viewBox="0 0 42 42">
  <g id="Group_60187" data-name="Group 60187" transform="translate(-7 -7)">
    <rect id="Rectangle_51654" data-name="Rectangle 51654" width="42" height="42" rx="21" transform="translate(7 7)" fill="#034243" opacity="0.207"/>
    <g id="Group_82227" data-name="Group 82227" transform="translate(-0.767 -6.587)">
      <path id="Path_104831" data-name="Path 104831" d="M68.155,22.8a2.342,2.342,0,0,0-1.588.709A1.88,1.88,0,0,0,66,24.955,2.155,2.155,0,1,0,68.155,22.8Z" transform="translate(-43.638 2.556)" fill="#fff"/>
      <path id="Path_104832" data-name="Path 104832" d="M33.847,41.419a1.53,1.53,0,0,0-2.58-.284l-1.872,2.751a1.457,1.457,0,0,1-2.439,0l-.567-.709a1.475,1.475,0,0,0-2.439.142l-3.2,5.047a1.491,1.491,0,0,0,1.3,2.3H35.576a1.536,1.536,0,0,0,1.3-2.155Z" transform="translate(0 -10.89)" fill="#fff"/>
    </g>
  </g>
</svg>
