<svg id="Group_82455" data-name="Group 82455" xmlns="http://www.w3.org/2000/svg" xmlns:xlink="http://www.w3.org/1999/xlink" width="95.531" height="100.248" viewBox="0 0 95.531 100.248">
  <defs>
    <linearGradient id="linear-gradient" x1="0.5" x2="0.5" y2="1" gradientUnits="objectBoundingBox">
      <stop offset="0" stop-color="#dada7c"/>
      <stop offset="1" stop-color="#63c4ca"/>
    </linearGradient>
    <clipPath id="clip-path">
      <path id="Path_102979" data-name="Path 102979" d="M227.889.111c-.009,0-.009.028-.009.062a.525.525,0,0,1,.135-.088,1.208,1.208,0,0,1,.115-.038,1.067,1.067,0,0,0-.241.064" transform="translate(-227.88 -0.047)" fill="url(#linear-gradient)"/>
    </clipPath>
    <clipPath id="clip-path-2">
      <path id="Path_102980" data-name="Path 102980" d="M255.992,58.711A34.375,34.375,0,0,0,253.67,55.6c.782,1.035,1.567,2.069,2.322,3.114" transform="translate(-253.67 -55.597)" fill="url(#linear-gradient)"/>
    </clipPath>
    <clipPath id="clip-path-3">
      <rect id="Rectangle_54990" data-name="Rectangle 54990" width="95.531" height="100.248" fill="url(#linear-gradient)"/>
    </clipPath>
  </defs>
  <g id="Group_82000" data-name="Group 82000" transform="translate(48.708 0.01)">
    <g id="Group_81999" data-name="Group 81999" clip-path="url(#clip-path)">
      <rect id="Rectangle_54988" data-name="Rectangle 54988" width="0.25" height="0.126" transform="translate(0 0)" fill="url(#linear-gradient)"/>
    </g>
  </g>
  <g id="Group_82002" data-name="Group 82002" transform="translate(54.221 11.884)">
    <g id="Group_82001" data-name="Group 82001" clip-path="url(#clip-path-2)">
      <rect id="Rectangle_54989" data-name="Rectangle 54989" width="2.321" height="3.114" transform="translate(0 0)" fill="url(#linear-gradient)"/>
    </g>
  </g>
  <g id="Group_82004" data-name="Group 82004">
    <g id="Group_82003" data-name="Group 82003" clip-path="url(#clip-path-3)">
      <path id="Path_102981" data-name="Path 102981" d="M191.507,42.573a15.512,15.512,0,0,0,.513,4.363,45.434,45.434,0,0,1,1.3,13.69c-.1,1.3-.28,2.593-.5,3.879-.006.038-.013.075-.019.111l-.006.045-.342,1.862-4.3,23.461a8.4,8.4,0,0,0,.162,4.083c.53,1.958,1.633,5.427-.817,5.795a5.18,5.18,0,0,1-2.191-.314c-.675-.222-2.013-1-1.468-1.907a11.956,11.956,0,0,0,1.293-5.534c.286-4.283.857-13.425.857-13.425s-.066-2.447.1-5.6h-.023c.017-1.152.045-2.293.1-3.435.154-2.915.477-5.822.594-8.725a5.6,5.6,0,0,0-1.152-4,.552.552,0,0,0-.333-.2c-.2-.017-.348.165-.457.325a9.666,9.666,0,0,0-1.171,6.592c.269,2.45.6,4.895.825,7.349.038.413.075.825.1,1.238a.008.008,0,0,1,.006,0c.16,2.281.289,4.563.271,6.844-.021,3.116.047,4.221-.1,7.084a.066.066,0,0,0,0,.021c-.017.19-.034.385-.051.586-.16,1.9-.346,4.115-.389,4.858a35.4,35.4,0,0,1-.368,4.08,18.068,18.068,0,0,1-.938,2.45c-.776,1.225.729,1.719.729,1.719-1.013.015-1.885-.355-1.928-1.464a12.856,12.856,0,0,1,.7-3.523,13.661,13.661,0,0,0,.338-2.1,14.524,14.524,0,0,0,.036-2.3l-.195-.87-.043-.19c-.015-.066-.026-.133-.038-.2-.6-3.238-1.4-6.442-2.127-9.657-.276-1.214-.571-2.424-.859-3.634-.34-1.415-.671-2.832-.955-4.258l.088.391c-.028-.128-.056-.257-.083-.387v0c-.094-.46-.186-.921-.269-1.381-.483-2.655-.755-5.344-1.116-8.024-.16-1.18-.359-2.364-.44-3.555a40.232,40.232,0,0,1,.936-9.319c.306-1.823.72-3.632.934-5.474.3-2.548-.536-4.948-1.223-7.342-1.195-4.138-2.715-8.186-3.236-12.485a11.76,11.76,0,0,1,2.176-8.537c1.674-2.311,3.426-4.57,5.171-6.833a10.043,10.043,0,0,0,1.78-5.083c.092-.658-.006-4.083,1.154-3.589.646.276.331,1.61.34,2.14.009,1.116,0,2.232-.062,3.345-.064,1.161.135,2.432-1.045,3.347-2.157,1.682-3.037,4.2-3.929,6.658a19.756,19.756,0,0,0-.648,8.238c.088,1.261-.019,2.7,1.223,3.651a2.5,2.5,0,0,0,2.535.235c.827-.522.686-1.323.513-2.078a2.548,2.548,0,0,0-.53-.9,6.945,6.945,0,0,1-1.419-5.711c.276-1.945,3.21-3.869,5.209-2.608,1.949,1.24,2.505,2.734,2.022,5.145a16.132,16.132,0,0,1-1.674,3.661,1.949,1.949,0,0,0,.062,2.317,2,2,0,0,0,2.531.019A3.176,3.176,0,0,0,191,25.038a22.566,22.566,0,0,0-.415-8.9c-.135-.468-.261-.934-.4-1.4-.8-2.2-1.712-4.354-3.636-5.857-1.178-.915-.981-2.187-1.045-3.347-.062-1.114-.068-2.229-.062-3.345.009-.485-.261-1.646.2-2.052a.525.525,0,0,1,.135-.088,1.206,1.206,0,0,1,.115-.038.587.587,0,0,1,.1-.006c.945,0,.864,3.02.945,3.634a10.765,10.765,0,0,0,1.387,4.506,11.577,11.577,0,0,0,1.815,2.588c.342.378.684.759,1.015,1.152.782,1.035,1.567,2.069,2.321,3.114a.486.486,0,0,1,.092.126c.342.522.667,1.043.981,1.571a13.324,13.324,0,0,1,.71,1.406v.006a11.719,11.719,0,0,1,.5,7.547c-1.026,4.021-2.2,8-3.249,12.008a26.672,26.672,0,0,0-1.007,4.91" transform="translate(-136.934 0)" fill="url(#linear-gradient)"/>
      <path id="Path_102982" data-name="Path 102982" d="M91.539,109.887a15.872,15.872,0,0,1-.438,2.683c-.207.808-.419,1.618-.635,2.422a34.713,34.713,0,0,1-6.419,65.936,9.938,9.938,0,0,1,.246,4.431l1.4.46a39.844,39.844,0,0,0,5.844-75.931M42.22,146.95a34.761,34.761,0,0,1,21.836-32.233,36.575,36.575,0,0,1-.755-4.108c-.043-.357-.075-.71-.092-1.062a39.842,39.842,0,0,0,8,76.833,4.79,4.79,0,0,1-.378-1.723,10.862,10.862,0,0,1,.526-3.446A34.761,34.761,0,0,1,42.22,146.95" transform="translate(-29.162 -86.132)" fill="url(#linear-gradient)"/>
      <path id="Path_102983" data-name="Path 102983" d="M39.646,46.757C38.723,47.969,37.8,49.2,36.9,50.436a15.217,15.217,0,0,0-2.022,3.828C16.115,59.813,2.393,77.532,2.393,98.535a46.8,46.8,0,0,0,4.337,19.757A47.783,47.783,0,0,1,39.646,46.757" transform="translate(-0.001 -36.763)" fill="url(#linear-gradient)"/>
      <path id="Path_102984" data-name="Path 102984" d="M294.812,124.261A46.649,46.649,0,0,0,302,99.274a46.014,46.014,0,0,0-30.638-43.681c-.062-.2-.13-.4-.2-.592v-.062l-.263-.609a17.091,17.091,0,0,0-.881-1.744l-.017-.028c-.329-.554-.654-1.075-.99-1.588a3.435,3.435,0,0,0-.261-.38c-.656-.983-1.37-1.956-2.133-2.892a47.777,47.777,0,0,1,28.2,76.564" transform="translate(-209.623 -37.502)" fill="url(#linear-gradient)"/>
    </g>
  </g>
</svg>
