<svg xmlns="http://www.w3.org/2000/svg" width="181.729" height="108" viewBox="0 0 181.729 108">
  <g id="Group_82551" data-name="Group 82551" transform="translate(-114.688 -287)">
    <g id="cloud-4" transform="translate(114.688 187.903)" opacity="0.326">
      <path id="Path_104840" data-name="Path 104840" d="M37.6,109.625l-.038,0a11.264,11.264,0,0,0-19.812-6.573A9.775,9.775,0,0,0,6.38,110.021a9.024,9.024,0,0,0,2.644,17.653H37.6a9.024,9.024,0,1,0,0-18.048Z" fill="#d3d6da"/>
      <path id="Path_104841" data-name="Path 104841" d="M36.849,162.195h-18.5a9.222,9.222,0,0,1-9.325-8.882,9.016,9.016,0,0,1,5.374-8.39,3.09,3.09,0,0,0,1.6-1.566,11.323,11.323,0,0,1,1.749-2.775A9.774,9.774,0,0,0,6.38,147.55,9.026,9.026,0,0,0,0,156.4a9.218,9.218,0,0,0,9.316,8.8h27.53a1.5,1.5,0,0,0,1.5-1.5h0A1.5,1.5,0,0,0,36.849,162.195Z" transform="translate(0 -37.529)" fill="#bfc1c4"/>
    </g>
    <g id="cloud-4-2" data-name="cloud-4" transform="translate(271.322 263.975)" opacity="0.326">
      <path id="Path_104840-2" data-name="Path 104840" d="M20.238,104.764h-.02a6.063,6.063,0,0,0-10.663-3.538,5.261,5.261,0,0,0-6.12,3.75,4.857,4.857,0,0,0,1.423,9.5H20.238a4.857,4.857,0,1,0,0-9.714Z" transform="translate(0 0)" fill="#d3d6da"/>
      <path id="Path_104841-2" data-name="Path 104841" d="M19.833,152.124H9.877a4.964,4.964,0,0,1-5.019-4.78,4.853,4.853,0,0,1,2.892-4.516,1.663,1.663,0,0,0,.861-.843,6.094,6.094,0,0,1,.941-1.494,5.26,5.26,0,0,0-6.118,3.75A4.858,4.858,0,0,0,0,149.006a4.961,4.961,0,0,0,5.014,4.737H19.833a.81.81,0,0,0,.81-.81h0A.809.809,0,0,0,19.833,152.124Z" transform="translate(0 -39.265)" fill="#bfc1c4"/>
    </g>
    <g id="Group_82550" data-name="Group 82550" transform="translate(161.167 286.967)">
      <circle id="Ellipse_42" data-name="Ellipse 42" cx="54" cy="54" r="54" transform="translate(-0.167 0.033)" fill="#fff" opacity="0.545"/>
      <path id="heart-9" d="M53.974,5.1A15.764,15.764,0,0,0,42.248,0a14.748,14.748,0,0,0-9.212,3.18,18.846,18.846,0,0,0-3.724,3.889A18.836,18.836,0,0,0,25.588,3.18,14.746,14.746,0,0,0,16.377,0,15.765,15.765,0,0,0,4.65,5.1,18.325,18.325,0,0,0,0,17.619c0,4.958,1.848,9.5,5.815,14.283,3.549,4.282,8.649,8.628,14.555,13.662,2.017,1.719,4.3,3.667,6.676,5.743a3.442,3.442,0,0,0,4.532,0c2.374-2.076,4.661-4.025,6.679-5.745C44.162,40.53,49.262,36.184,52.811,31.9c3.967-4.786,5.814-9.325,5.814-14.283A18.323,18.323,0,0,0,53.974,5.1Zm0,0" transform="translate(24.521 31.091)" fill="#d3d6da"/>
    </g>
  </g>
</svg>
