<svg xmlns="http://www.w3.org/2000/svg" width="17.592" height="16.66" viewBox="0 0 17.592 16.66">
  <g id="eye-crossed" transform="translate(0 -9.887)">
    <path id="Path_100859" data-name="Path 100859" d="M16.888,15.788h0a11.274,11.274,0,0,0-2.018-2.23L11.634,15.24c.419-.444,2.74-1.717,2.3-2.136-.426-.4,1.878-3.585,1.452-3.182L12.99,12.315a9.239,9.239,0,0,0-4.2-.974A9.757,9.757,0,0,0,.7,15.788a4.059,4.059,0,0,0,0,4.564,11.274,11.274,0,0,0,2.018,2.23L.645,24.66a1.106,1.106,0,1,0,1.564,1.564L4.6,23.831a9.239,9.239,0,0,0,4.2.974,9.757,9.757,0,0,0,8.093-4.448A4.059,4.059,0,0,0,16.888,15.788ZM2.525,19.1a1.831,1.831,0,0,1,0-2.063,7.477,7.477,0,0,1,6.27-3.49,7.188,7.188,0,0,1,2.517.442L9.946,15.359a2.947,2.947,0,0,0-3.865,3.865l-1.8,1.8A8.906,8.906,0,0,1,2.525,19.1Zm12.54,0a7.477,7.477,0,0,1-6.27,3.49,7.188,7.188,0,0,1-2.517-.442l1.366-1.366a2.947,2.947,0,0,0,3.865-3.865l1.8-1.8a8.907,8.907,0,0,1,1.76,1.916,1.831,1.831,0,0,1,0,2.063Z" transform="translate(0 0)" fill="#4a4a4b"/>
  </g>
</svg>
