<svg xmlns="http://www.w3.org/2000/svg" width="17.305" height="17.301" viewBox="0 0 17.305 17.301">
  <g id="cloud-computing" transform="translate(-0.001 -0.056)">
    <g id="Group_82221" data-name="Group 82221" transform="translate(0.001 0.056)">
      <g id="Group_82220" data-name="Group 82220" transform="translate(0 0)">
        <path id="Path_104811" data-name="Path 104811" d="M15.992,5.871a4.811,4.811,0,0,0,.082-.876A4.945,4.945,0,0,0,6.48,3.315a2.472,2.472,0,0,0-3.319,1.72,3.709,3.709,0,0,0,.55,7.376H6.8a.618.618,0,1,0,0-1.236H3.711a2.472,2.472,0,1,1,0-4.945.618.618,0,0,0,.618-.618,1.236,1.236,0,0,1,2.1-.881.618.618,0,0,0,1.044-.341,3.7,3.7,0,0,1,7.31,1.215q-.03.181-.078.357a.618.618,0,0,0,.255.68A2.472,2.472,0,0,1,13.6,11.176H11.747a.618.618,0,0,0,0,1.236H13.6a3.709,3.709,0,0,0,2.391-6.541Z" transform="translate(-0.001 -0.056)" fill="#034243"/>
      </g>
    </g>
    <g id="Group_82223" data-name="Group 82223" transform="translate(5.573 5.613)">
      <g id="Group_82222" data-name="Group 82222">
        <path id="Path_104812" data-name="Path 104812" d="M161.08,161.089a.618.618,0,0,0-.859,0l-2.037,2.035v-9.016a.618.618,0,1,0-1.236,0v9.016l-2.035-2.035a.618.618,0,0,0-.874.874l3.09,3.09a.618.618,0,0,0,.874,0h0l3.09-3.09A.618.618,0,0,0,161.08,161.089Z" transform="translate(-153.865 -153.491)" fill="#034243"/>
      </g>
    </g>
  </g>
</svg>
