<svg xmlns="http://www.w3.org/2000/svg" width="16.358" height="16.618" viewBox="0 0 16.358 16.618">
  <g id="Layer_1" data-name="Layer 1" transform="translate(-2.21 -1.997)">
    <path id="Path_104824" data-name="Path 104824" d="M18.032,8.646A1.187,1.187,0,0,0,16.785,8.6l-2.647,1.513-3.11-4.67a1.78,1.78,0,1,0-1.27,0l-3.11,4.67L4,8.6a1.187,1.187,0,0,0-1.78,1.187l.926,7.27a1.78,1.78,0,0,0,1.78,1.561H15.871a1.78,1.78,0,0,0,1.78-1.561l.908-7.276A1.187,1.187,0,0,0,18.032,8.646Zm-7.638-5.46a.593.593,0,1,1-.593.593A.593.593,0,0,1,10.394,3.186Zm6.071,13.721a.593.593,0,0,1-.593.522H4.916a.593.593,0,0,1-.593-.522L3.415,9.631l2.641,1.513a1.187,1.187,0,0,0,1.579-.374l2.76-4.142,2.76,4.154a1.187,1.187,0,0,0,1.579.374l2.641-1.513Z" transform="translate(0)" fill="#034243"/>
  </g>
</svg>
