<svg xmlns="http://www.w3.org/2000/svg" width="40" height="40" viewBox="0 0 40 40">
  <g id="in_instagram" style="isolation: isolate">
    <g id="ic">
      <g id="Fill">
        <g id="Shape_Type" data-name="Shape Type">
          <path id="Rounded" d="M12,0H28A12,12,0,0,1,40,12V28A12,12,0,0,1,28,40H12A12,12,0,0,1,0,28V12A12,12,0,0,1,12,0Z" fill="#22c1d3" opacity="0.087"/>
        </g>
      </g>
      <g id="ic_instagram" transform="translate(8 8)">
        <path id="Shape" d="M11.015,20H8.986c-.94,0-2.034-.005-3.113-.066A5.905,5.905,0,0,1,1.679,18.32,5.9,5.9,0,0,1,.066,14.128C0,12.919,0,11.694,0,10.509V9.492c0-1.185,0-2.409.065-3.62A5.905,5.905,0,0,1,1.679,1.679,5.905,5.905,0,0,1,5.873.066C6.949.005,8.044,0,8.984,0h2.029c.941,0,2.034.005,3.113.066A5.905,5.905,0,0,1,18.32,1.679a5.9,5.9,0,0,1,1.614,4.193C20,7.081,20,8.306,20,9.491V10q0,.286,0,.572c0,1.164,0,2.368-.065,3.556A5.9,5.9,0,0,1,18.32,18.32a5.905,5.905,0,0,1-4.193,1.614C13.05,19.995,11.956,20,11.015,20ZM10,4.869A5.131,5.131,0,1,0,15.128,10,5.137,5.137,0,0,0,10,4.869Zm5.342-1.409a1.2,1.2,0,1,0,1.2,1.2A1.2,1.2,0,0,0,15.339,3.461ZM10,13.334A3.335,3.335,0,1,1,13.332,10,3.338,3.338,0,0,1,10,13.334Z" transform="translate(2 2)" fill="#22c1d3"/>
      </g>
    </g>
  </g>
</svg>
