<svg xmlns="http://www.w3.org/2000/svg" width="44" height="44" viewBox="0 0 44 44">
  <g id="Group_81963" data-name="Group 81963" transform="translate(-243.113 -593.113)">
    <g id="Group_81961" data-name="Group 81961" transform="translate(243.113 593.113)">
      <g id="Group_81957" data-name="Group 81957" transform="translate(44 0) rotate(90)">
        <g id="Group_59829" data-name="Group 59829" transform="translate(44 44) rotate(180)">
          <g id="Group_76728" data-name="Group 76728" transform="translate(44 0) rotate(90)">
            <g id="Group_60187" data-name="Group 60187" transform="translate(0 0)">
              <rect id="Rectangle_51654" data-name="Rectangle 51654" width="44" height="44" rx="22" transform="translate(0 0)" fill="#bec685" opacity="0.209"/>
            </g>
          </g>
        </g>
      </g>
      <g id="like-4" transform="translate(12.244 12.431)">
        <g id="Group_82425" data-name="Group 82425" transform="translate(0.194 8.408)">
          <g id="Group_82424" data-name="Group 82424" transform="translate(0)">
            <path id="Path_104903" data-name="Path 104903" d="M.76,224.948a.566.566,0,0,0-.566.566v8.315a.566.566,0,0,0,.566.566H4.171v-9.447Z" transform="translate(-0.194 -224.948)" fill="#fff"/>
          </g>
        </g>
        <g id="Group_82427" data-name="Group 82427" transform="translate(5.303 0)">
          <g id="Group_82426" data-name="Group 82426">
            <path id="Path_104904" data-name="Path 104904" d="M150.9,11.534a1.975,1.975,0,0,0-.962-1.694,1.973,1.973,0,0,0-1.624-3.094h-4.166c.128-.579.3-1.447.424-2.356.316-2.365.1-3.677-.681-4.128A1.706,1.706,0,0,0,142.414.1a1.943,1.943,0,0,0-1.124,1.3L140.2,4.27a10.694,10.694,0,0,1-3.309,3.606v10.23a18.3,18.3,0,0,0,6.073,1.032H147.5a1.973,1.973,0,0,0,1.677-3.013,1.972,1.972,0,0,0,.762-2.9A1.975,1.975,0,0,0,150.9,11.534Z" transform="translate(-136.886 0)" fill="#fff"/>
          </g>
        </g>
      </g>
    </g>
  </g>
</svg>
