<svg xmlns="http://www.w3.org/2000/svg" xmlns:xlink="http://www.w3.org/1999/xlink" width="50" height="50" viewBox="0 0 50 50">
  <defs>
    <linearGradient id="linear-gradient" x1="0.5" x2="0.5" y2="1" gradientUnits="objectBoundingBox">
      <stop offset="0" stop-color="#dada7c"/>
      <stop offset="1" stop-color="#63c4ca"/>
    </linearGradient>
  </defs>
  <g id="Group_82168" data-name="Group 82168" transform="translate(-173.863 -165.066)">
    <path id="Path" d="M24.847,0h.307A27.923,27.923,0,0,1,38.489,3.005a20.444,20.444,0,0,1,8.505,8.505A27.923,27.923,0,0,1,50,24.847v.307a27.923,27.923,0,0,1-3.005,13.336,20.444,20.444,0,0,1-8.505,8.505A27.923,27.923,0,0,1,25.153,50h-.307A27.923,27.923,0,0,1,11.51,46.995a20.444,20.444,0,0,1-8.505-8.505A27.923,27.923,0,0,1,0,25.153v-.307A27.923,27.923,0,0,1,3.005,11.51,20.444,20.444,0,0,1,11.51,3.005,27.923,27.923,0,0,1,24.847,0Z" transform="translate(173.863 165.066)" fill="url(#linear-gradient)"/>
    <g id="user-27" transform="translate(188.723 177.788)">
      <path id="Path_102916" data-name="Path 102916" d="M92.886,11.71a5.665,5.665,0,0,0,4.14-1.715,5.665,5.665,0,0,0,1.715-4.14,5.666,5.666,0,0,0-1.715-4.14,5.854,5.854,0,0,0-8.279,0,5.665,5.665,0,0,0-1.715,4.14,5.665,5.665,0,0,0,1.716,4.14A5.667,5.667,0,0,0,92.886,11.71Zm0,0" transform="translate(-82.899)" fill="#fff"/>
      <path id="Path_102917" data-name="Path 102917" d="M20.232,254.267a14.462,14.462,0,0,0-.2-1.536,12.1,12.1,0,0,0-.378-1.544,7.629,7.629,0,0,0-.635-1.44,5.438,5.438,0,0,0-.957-1.248,4.221,4.221,0,0,0-1.375-.864,4.753,4.753,0,0,0-1.756-.318,1.782,1.782,0,0,0-.952.4c-.285.186-.619.4-.991.639a5.679,5.679,0,0,1-1.283.565,4.98,4.98,0,0,1-3.138,0,5.665,5.665,0,0,1-1.282-.565c-.369-.236-.7-.451-.992-.639a1.78,1.78,0,0,0-.951-.4,4.747,4.747,0,0,0-1.755.318,4.217,4.217,0,0,0-1.375.864,5.437,5.437,0,0,0-.957,1.247,7.644,7.644,0,0,0-.635,1.441,12.128,12.128,0,0,0-.378,1.544,14.411,14.411,0,0,0-.2,1.537c-.032.465-.049.948-.049,1.436a4.036,4.036,0,0,0,1.2,3.054,4.315,4.315,0,0,0,3.089,1.127h11.7a4.315,4.315,0,0,0,3.089-1.127,4.035,4.035,0,0,0,1.2-3.054C20.281,255.213,20.264,254.729,20.232,254.267Zm0,0" transform="translate(0 -235.574)" fill="#fff"/>
    </g>
  </g>
</svg>
