<svg xmlns="http://www.w3.org/2000/svg" width="23" height="23" viewBox="0 0 23 23">
  <g id="sign-in-alt" transform="translate(0 0)">
    <path id="Path_100856" data-name="Path 100856" d="M4.887,0H18.112A4.844,4.844,0,0,1,23,4.792V7.667a.958.958,0,1,1-1.917,0V4.792a2.927,2.927,0,0,0-2.971-2.875H4.887A2.927,2.927,0,0,0,1.917,4.792V18.208a2.927,2.927,0,0,0,2.971,2.875H18.112a2.927,2.927,0,0,0,2.971-2.875V15.333a.958.958,0,1,1,1.917,0v2.875A4.844,4.844,0,0,1,18.112,23H4.887A4.844,4.844,0,0,1,0,18.208V4.792A4.844,4.844,0,0,1,4.887,0Z"/>
    <path id="Path_100857" data-name="Path 100857" d="M19.046,11.708a.958.958,0,0,1-.958.958h0L5.449,12.638l4.143,4.143a.958.958,0,1,1-1.355,1.355L3.842,13.741a2.875,2.875,0,0,1,0-4.065L8.235,5.281A.958.958,0,1,1,9.59,6.636L5.505,10.721l12.582.029A.958.958,0,0,1,19.046,11.708Z" transform="translate(1.079 -0.208)"/>
  </g>
</svg>
