<svg xmlns="http://www.w3.org/2000/svg" width="40" height="40" viewBox="0 0 40 40">
  <g id="ic_twitter" style="isolation: isolate">
    <g id="ic">
      <g id="Fill">
        <g id="Shape_Type" data-name="Shape Type">
          <path id="Rounded" d="M12,0H28A12,12,0,0,1,40,12V28A12,12,0,0,1,28,40H12A12,12,0,0,1,0,28V12A12,12,0,0,1,12,0Z" fill="#22c1d3" opacity="0.087"/>
        </g>
      </g>
      <g id="ic_twitter-2" data-name="ic_twitter" transform="translate(8 8)">
        <rect id="bound" width="18" height="18" transform="translate(3 3)" fill="#22c1d3" opacity="0"/>
        <path id="Fill-2" data-name="Fill" d="M10,20A10,10,0,1,1,20,10,10.011,10.011,0,0,1,10,20ZM5,8.972A2.682,2.682,0,0,0,5.44,10.1a6.6,6.6,0,0,0,1.747,1.293l-1.293.017a2.719,2.719,0,0,0,.588.722,6.1,6.1,0,0,0,1.781.857A.1.1,0,0,1,8.239,13a9.024,9.024,0,0,1-1.54.874,6.842,6.842,0,0,1-1.647.3,6.351,6.351,0,0,0,3.08.741c.237,0,.478-.012.717-.035a6.619,6.619,0,0,0,5.108-3.092,7.581,7.581,0,0,0,1.109-4.116c.04-.045.183-.2.459-.453a3.141,3.141,0,0,0,.426-.445l-.813.086.527-.942a.606.606,0,0,1-.06.028c-.1.046-.322.141-.485.2-.217.08-.509.16-.521.164a2.547,2.547,0,0,0-1.809-.859,2.364,2.364,0,0,0-2.244,3.06H10.5a7.386,7.386,0,0,1-3.147-.824A5.047,5.047,0,0,1,5.2,6.032a2.307,2.307,0,0,0-.151,1.345,5.7,5.7,0,0,0,.944,2L5,8.972Z" transform="translate(2 2)" fill="#22c1d3"/>
      </g>
    </g>
  </g>
</svg>
