<svg xmlns="http://www.w3.org/2000/svg" width="12.163" height="14.576" viewBox="0 0 12.163 14.576">
  <path id="document" d="M11.047,8.444a.6.6,0,0,1-.6.6H5.619a.6.6,0,1,1,0-1.206h4.825A.6.6,0,0,1,11.047,8.444ZM8.635,10.254H5.619a.6.6,0,1,0,0,1.206H8.635a.6.6,0,0,0,0-1.206Zm5.428-3.93V11.46a3.019,3.019,0,0,1-3.016,3.016H5.016A3.019,3.019,0,0,1,2,11.46V3.016A3.019,3.019,0,0,1,5.016,0H7.739a4.2,4.2,0,0,1,2.986,1.236l2.1,2.1a4.192,4.192,0,0,1,1.237,2.985ZM9.872,2.089a3.022,3.022,0,0,0-.634-.47v2.6a.6.6,0,0,0,.6.6h2.6a3.005,3.005,0,0,0-.471-.633Zm2.985,4.235c0-.1-.019-.195-.028-.293H9.841A1.809,1.809,0,0,1,8.031,4.222V1.235c-.1-.009-.194-.028-.293-.028H5.016A1.809,1.809,0,0,0,3.206,3.016V11.46a1.809,1.809,0,0,0,1.809,1.809h6.031a1.809,1.809,0,0,0,1.809-1.809Z" transform="translate(-1.95 0.05)" fill="#034243" stroke="#e4efef" stroke-width="0.1"/>
</svg>
