<svg xmlns="http://www.w3.org/2000/svg" width="19.49" height="19.49" viewBox="0 0 19.49 19.49">
  <path id="checklist" d="M15.828,2H7.662C4.115,2,2,4.115,2,7.662v8.166c0,3.547,2.115,5.662,5.662,5.662h8.166c3.547,0,5.662-2.115,5.662-5.662V7.662C21.49,4.115,19.375,2,15.828,2ZM9.767,14.571,7.574,16.763a.723.723,0,0,1-.516.214.707.707,0,0,1-.516-.214l-.731-.731A.718.718,0,0,1,5.81,15a.735.735,0,0,1,1.033,0l.214.214,1.676-1.676a.73.73,0,0,1,1.033,1.033Zm0-6.821L7.574,9.942a.723.723,0,0,1-.516.214.707.707,0,0,1-.516-.214L5.81,9.211a.718.718,0,0,1,0-1.033.735.735,0,0,1,1.033,0l.214.214L8.734,6.716A.73.73,0,0,1,9.767,7.749Zm7.4,8.5H12.047a.731.731,0,1,1,0-1.462h5.116a.731.731,0,0,1,0,1.462Zm0-6.821H12.047a.731.731,0,1,1,0-1.462h5.116a.731.731,0,0,1,0,1.462Z" transform="translate(-2 -2)" fill="#9aa1aa"/>
</svg>
