<svg xmlns="http://www.w3.org/2000/svg" width="25.489" height="25.489" viewBox="0 0 25.489 25.489">
  <path id="user-5" d="M21.33,3.66A12.495,12.495,0,0,0,3.66,21.33,12.495,12.495,0,0,0,21.33,3.66ZM6.264,21.592a6.327,6.327,0,0,1,12.461,0,11.006,11.006,0,0,1-12.461,0ZM8.522,10.926A3.973,3.973,0,1,1,12.495,14.9,3.977,3.977,0,0,1,8.522,10.926Zm11.472,9.65a7.8,7.8,0,0,0-4.536-5.093,5.437,5.437,0,1,0-5.925,0A7.8,7.8,0,0,0,5,20.576a11.03,11.03,0,1,1,15,0Zm0,0" transform="translate(0.25 0.25)" stroke="#000" stroke-width="0.5"/>
</svg>
