<svg xmlns="http://www.w3.org/2000/svg" width="173.343" height="90.204" viewBox="0 0 173.343 90.204">
  <g id="Group_82348" data-name="Group 82348" transform="translate(-988.25 -3483.603)">
    <g id="Group_82348-2" data-name="Group 82348" transform="translate(967.598 3552.067)">
      <path id="Path_104975" data-name="Path 104975" d="M-163.62-2.04c-.96,0-1.575-.195-1.575-1.47v-5.2h-1.545V-7.65c-3.585.7-4.875,2.16-4.875,3.975A2.614,2.614,0,0,0-168.81-.93a2.182,2.182,0,0,0,2.25-1.38A2.549,2.549,0,0,0-163.71,0l.255-.06.09-1.935Zm-4.995-.945c-.885,0-1.635-.3-1.635-.96,0-.7.855-1.425,3.51-1.9v2.28A2.552,2.552,0,0,1-168.615-2.985Zm9.9.945c-1.2,0-1.665-.225-1.665-1.56V-5.7h-1.56v2.16c0,1.29-.57,1.5-1.68,1.5l-.255.045-.09,1.95.255.045a2.267,2.267,0,0,0,2.355-1.485A2.413,2.413,0,0,0-158.805,0l.255-.045.09-1.95Zm-2.445,3.06a.9.9,0,0,0-.93.915.9.9,0,0,0,.93.915.9.9,0,0,0,.915-.915A.9.9,0,0,0-161.16,1.02Zm13.8-3.06c-1.26,0-1.83-.21-2.055-.825h1.125l.15-2.055h-1.62a3.986,3.986,0,0,1-2.43-.765,6.058,6.058,0,0,0-3.18-1.11,3.715,3.715,0,0,0-2.91,1.29l.63,1.335a3.62,3.62,0,0,1,2.085-.66,6.459,6.459,0,0,1,2.85.825q.36.18.675.315a13.155,13.155,0,0,1-6.675,1.65L-158.97-2l-.09,1.95.255.045c2.67,0,4.575-.45,7.935-2.865h.45c.075,1.755.645,2.865,2.97,2.865l.255-.045.09-1.95Zm.09-6.255a.832.832,0,0,0,.825.825.81.81,0,0,0,.81-.825.819.819,0,0,0-.81-.825A.832.832,0,0,0-147.27-8.3Zm2.055,0a.8.8,0,0,0,.825.825.819.819,0,0,0,.81-.825.819.819,0,0,0-.81-.825A.813.813,0,0,0-145.215-8.3ZM-147.45,0c2.07,0,3.27-1.26,3.27-3.45a11.777,11.777,0,0,0-.495-3.075l-1.485.42a14.957,14.957,0,0,1,.435,2.79c0,.87-.525,1.275-1.635,1.275l-.255.09-.09,1.86Zm8.25-2.79c0,1.95,1.23,2.79,3.12,2.79h.06l.255-.045.09-1.95-.255-.045h-.075c-.93,0-1.575-.24-1.575-1.38v-7.32h-1.62Zm8.355-3.645c-1.68,0-2.97,1.185-3.5,3.42a1.477,1.477,0,0,1-1.59.975l-.255.045-.09,1.95.255.045a2.155,2.155,0,0,0,2.1-1.3A2.862,2.862,0,0,0-131.235.06a2.985,2.985,0,0,0,3.285-3.09C-127.95-4.98-129.15-6.435-130.845-6.435Zm-.24,4.47a2.492,2.492,0,0,1-2.07-.735,2.232,2.232,0,0,1,2.13-1.725,1.583,1.583,0,0,1,1.7,1.485C-129.33-2.355-129.975-1.965-131.085-1.965Zm11.445.975c.9.87,1.845.99,3.99.99h.42l.255-.045.09-1.95-.255-.045h-.375a20.551,20.551,0,0,1-2.535-.09C-116.67-2.985-116-3.795-116-4.9c0-1.455-1.125-2.37-3.045-2.37a6.273,6.273,0,0,0-3.69,1.17l-.06,1.83c.375.435,1.305,1.365,2.04,2.085-1.635.765-2.94,1.8-2.94,3.615,0,2.07,1.65,3.315,4.215,3.315a9.26,9.26,0,0,0,4.26-.975l-.3-1.77a10.3,10.3,0,0,1-3.75.72c-2.175,0-3-.75-3-1.485C-122.265.375-121.455-.2-119.64-.99Zm2.28-3.54c0,.51-.645,1.08-2,1.71-.465-.42-1.41-1.32-2.115-2.01a5.339,5.339,0,0,1,2.28-.51C-118.14-5.34-117.36-5.01-117.36-4.53Zm7.125,2.49c-1.2,0-1.665-.225-1.665-1.56V-5.7h-1.56v2.16c0,1.29-.57,1.5-1.68,1.5l-.255.045-.09,1.95.255.045a2.267,2.267,0,0,0,2.355-1.485A2.413,2.413,0,0,0-110.325,0l.255-.045.09-1.95Zm-2.445,3.06a.9.9,0,0,0-.93.915.9.9,0,0,0,.93.915.9.9,0,0,0,.915-.915A.9.9,0,0,0-112.68,1.02Zm2.535-9.315a.832.832,0,0,0,.825.825.81.81,0,0,0,.81-.825.819.819,0,0,0-.81-.825A.832.832,0,0,0-110.145-8.3Zm2.055,0a.8.8,0,0,0,.825.825.819.819,0,0,0,.81-.825.819.819,0,0,0-.81-.825A.813.813,0,0,0-108.09-8.3ZM-110.325,0c2.07,0,3.27-1.26,3.27-3.45a11.777,11.777,0,0,0-.5-3.075l-1.485.42a14.957,14.957,0,0,1,.435,2.79c0,.87-.525,1.275-1.635,1.275l-.255.09-.09,1.86Zm6.645,0V-10.74h-1.62V0Zm14-2.04c-1.125,0-1.44-.48-1.995-1.635L-93.885-8.31l-1.575.72,2.22,4.6c-.135.675-.93,1.05-2.115,1.05-1.215,0-2.13-.21-2.085-1.695l-1.35.06c-.12,1.965.27,3.705,3.225,3.705a2.885,2.885,0,0,0,3.09-1.95A2.651,2.651,0,0,0-89.775,0l.255-.045L-89.43-2ZM-89.775,0c2.07,0,3.27-1.26,3.27-3.45A11.777,11.777,0,0,0-87-6.525l-1.485.42a14.957,14.957,0,0,1,.435,2.79c0,.87-.525,1.275-1.635,1.275l-.255.09-.09,1.86Zm.615,2.67a.8.8,0,0,0,.81-.81.819.819,0,0,0-.81-.825.832.832,0,0,0-.825.825A.819.819,0,0,0-89.16,2.67Zm2.055,0a.807.807,0,0,0,.81-.81.819.819,0,0,0-.81-.825.813.813,0,0,0-.825.825A.792.792,0,0,0-87.105,2.67Zm6.93-4.71a25.991,25.991,0,0,0-.57-3.435l-1.545.435a25.188,25.188,0,0,1,.6,3.9c0,1.17-.87,2.43-2.9,2.43a8.139,8.139,0,0,1-1.035-.06l-.135,1.89a5.309,5.309,0,0,0,1.455.195A4.02,4.02,0,0,0-80.3,0h1.245l.255-.075.09-1.89-.255-.075Zm1.3-6.255a.832.832,0,0,0,.825.825.81.81,0,0,0,.81-.825.819.819,0,0,0-.81-.825A.832.832,0,0,0-78.87-8.3Zm2.055,0a.8.8,0,0,0,.825.825.819.819,0,0,0,.81-.825.819.819,0,0,0-.81-.825A.813.813,0,0,0-76.815-8.3ZM-79.05,0c2.07,0,3.27-1.26,3.27-3.45a11.777,11.777,0,0,0-.5-3.075l-1.485.42a14.957,14.957,0,0,1,.435,2.79c0,.87-.525,1.275-1.635,1.275l-.255.09-.09,1.86Zm8.25-2.79C-70.8-.84-69.57,0-67.68,0h.06l.255-.045.09-1.95-.255-.045h-.075c-.93,0-1.575-.24-1.575-1.38v-7.32H-70.8Zm8.355-3.645c-1.68,0-2.97,1.185-3.5,3.42a1.477,1.477,0,0,1-1.59.975L-67.785-2l-.09,1.95L-67.62,0a2.155,2.155,0,0,0,2.1-1.3A2.862,2.862,0,0,0-62.835.06,2.985,2.985,0,0,0-59.55-3.03C-59.55-4.98-60.75-6.435-62.445-6.435Zm-.24,4.47a2.492,2.492,0,0,1-2.07-.735,2.232,2.232,0,0,1,2.13-1.725A1.583,1.583,0,0,1-60.93-2.94C-60.93-2.355-61.575-1.965-62.685-1.965Zm12.15-3.615a.9.9,0,0,0,.915-.915.9.9,0,0,0-.915-.915.9.9,0,0,0-.93.915A.9.9,0,0,0-50.535-5.58Zm4.8,3.54a17.764,17.764,0,0,0-.66-3.315l-1.56.42a16.921,16.921,0,0,1,.69,3.87c0,1.545-1.23,2.4-3.225,2.4s-3.165-.84-3.165-2.6a7.618,7.618,0,0,1,.6-2.67l-1.35-.48A8.315,8.315,0,0,0-55.23-.825c0,2.52,1.68,4.2,4.635,4.2C-48,3.375-46.32,2.1-45.84,0h1.275l.255-.075.09-1.89-.255-.075Zm5.715,0c-1.1,0-2.16-.525-2.16-1.62a1.734,1.734,0,0,1,1.92-1.575,3.124,3.124,0,0,1,2.01.84l.84-1.395a3.339,3.339,0,0,0-2.775-1.485A3.353,3.353,0,0,0-43.62-3.9a2.474,2.474,0,0,0,.705,1.86h-1.56l-.27.105-.075,1.86.255.075h7.725V-2.04Zm13.635-6.345a.778.778,0,0,0,.78-.8.769.769,0,0,0-.78-.8.794.794,0,0,0-.81.8A.794.794,0,0,0-26.385-8.385Zm-.99,1.785a.769.769,0,0,0,.8-.78.773.773,0,0,0-.8-.8.773.773,0,0,0-.8.8A.769.769,0,0,0-27.375-6.6Zm1.155-.78a.773.773,0,0,0,.81.78.757.757,0,0,0,.78-.78.76.76,0,0,0-.78-.8A.785.785,0,0,0-26.22-7.38Zm7.335,5.34c-1.2,0-1.665-.225-1.665-1.56V-5.7h-1.56v2.175c0,1.035-.99,1.485-3.06,1.485h-2.775c-2.175,0-3.165-.66-3.165-2.1a5.724,5.724,0,0,1,.465-2.07l-1.35-.48a7.375,7.375,0,0,0-.66,2.985c0,2.325,1.23,3.7,4.575,3.7h2.91c2.055,0,3.15-.585,3.6-1.62A2.391,2.391,0,0,0-18.975,0l.255-.045L-18.63-2Zm11.355,0c-1.26,0-1.83-.21-2.055-.825H-8.46l.15-2.055H-9.93a3.986,3.986,0,0,1-2.43-.765A6.058,6.058,0,0,0-15.54-6.8a3.715,3.715,0,0,0-2.91,1.29l.63,1.335a3.62,3.62,0,0,1,2.085-.66A6.459,6.459,0,0,1-12.885-4q.36.18.675.315a13.155,13.155,0,0,1-6.675,1.65L-19.14-2l-.09,1.95.255.045c2.67,0,4.575-.45,7.935-2.865h.45C-10.515-1.11-9.945,0-7.62,0l.255-.045L-7.275-2ZM-7.62,0c2.07,0,3.27-1.26,3.27-3.45a11.777,11.777,0,0,0-.495-3.075l-1.485.42a14.957,14.957,0,0,1,.435,2.79c0,.87-.525,1.275-1.635,1.275l-.255.09-.09,1.86Zm1.65,2.85a.9.9,0,0,0,.915-.915A.9.9,0,0,0-5.97,1.02a.9.9,0,0,0-.93.915A.9.9,0,0,0-5.97,2.85ZM-1.005,0V-10.74h-1.62V0Z" transform="translate(195 17)" fill="#fff"/>
    </g>
    <path id="Path_104976" data-name="Path 104976" d="M-97.7-22a13.685,13.685,0,0,0-2.5.2l1.15-7.75h12.7v-5.6h-17.7l-2.65,18.6.75.7a19.084,19.084,0,0,1,6.5-1.25c5.55,0,7.65,2.65,7.65,5.9,0,3.7-2.65,6-6.75,6a18.4,18.4,0,0,1-8.85-2.65l-1.35,5.5A20.929,20.929,0,0,0-98.2.6c7.55,0,13.05-4.75,13.05-11.75C-85.15-17.55-89.65-22-97.7-22Zm53.75-8.75a2.594,2.594,0,0,0,2.6-2.65,2.563,2.563,0,0,0-2.6-2.65,2.647,2.647,0,0,0-2.7,2.65A2.647,2.647,0,0,0-43.95-30.75Zm-3.3,5.95a2.564,2.564,0,0,0,2.65-2.6,2.575,2.575,0,0,0-2.65-2.65A2.575,2.575,0,0,0-49.9-27.4,2.564,2.564,0,0,0-47.25-24.8Zm3.85-2.6a2.576,2.576,0,0,0,2.7,2.6,2.522,2.522,0,0,0,2.6-2.6,2.534,2.534,0,0,0-2.6-2.65A2.617,2.617,0,0,0-43.4-27.4Zm7.25,20.6c-3.55,0-5.25-.75-5.25-5.2v-8.85h-5.2V-13H-57c-.4-2.3-1-4.65-1.6-6.85l-5.15,1.45c1.3,5.7,2.5,10.35,2.5,13.95,0,3.9-2.9,8.25-9.65,8.25a27.13,27.13,0,0,1-3.45-.2l-.45,6.3a17.7,17.7,0,0,0,4.85.65c8.55,0,13.85-6.95,13.85-15.7,0-.45,0-.95-.05-1.45h10.2c.75,4.85,4.2,6.6,9.5,6.6l.85-.15.3-6.5Zm22.5-24.45-1.9-5.1L-35.3-25.25v5.85c8.55,4.4,13.05,6.5,13.05,9.75,0,2-2.85,2.85-6.5,2.85h-7.4l-.85.15-.3,6.5.85.15H-30c8,0,12.6-3.35,12.6-10.1,0-5.9-5.05-9.05-11.85-12.7Zm8.55-7.5c-1.7,0-2.65-.55-2.65-1.3,0-.85,1.1-1.4,2.2-1.4a3.737,3.737,0,0,1,2.3.9L-1.9-42.9a4.184,4.184,0,0,0-3.65-2.05,4.276,4.276,0,0,0-4.4,4.4,3.745,3.745,0,0,0,.5,1.95H-10.9v3.1h9.55v-3.25ZM-3.35,0V-32.7h-5.4V0Z" transform="translate(1097 3534)" fill="#fff"/>
    <g id="success" transform="translate(1052.899 3483.603)">
      <circle id="Ellipse_47" data-name="Ellipse 47" cx="6.475" cy="6.475" r="6.475" transform="translate(74.138 22.264)" fill="#fff"/>
      <path id="Path_104880" data-name="Path 104880" d="M103.421,179.685h0a3.8,3.8,0,0,0-3.793,3.794V187.2a13.3,13.3,0,0,1-26.591,0v-3.725a3.794,3.794,0,1,0-7.587,0v3.656a20.85,20.85,0,0,0,8.3,16.668,1.169,1.169,0,0,1,.464.932V215a1.171,1.171,0,0,0,1.171,1.171h21.68A1.171,1.171,0,0,0,98.235,215V204.84a1.168,1.168,0,0,1,.469-.936,21.2,21.2,0,0,0,8.51-16.994v-3.431A3.8,3.8,0,0,0,103.421,179.685Z" transform="translate(-5.616 -158.637)" fill="#fff"/>
      <path id="Path_104881" data-name="Path 104881" d="M169.18,10.935a1.267,1.267,0,0,1,.287.871l-.22,4.244a1.267,1.267,0,0,0,1.733,1.243l3.889-1.546a1.266,1.266,0,0,1,.936,0l3.889,1.546a1.267,1.267,0,0,0,1.733-1.243l-.22-4.244a1.266,1.266,0,0,1,.287-.871l2.627-3.191a1.267,1.267,0,0,0-.635-2.025L179.4,4.572a1.267,1.267,0,0,1-.715-.522L176.394.57a1.267,1.267,0,0,0-2.115,0l-2.294,3.48a1.267,1.267,0,0,1-.715.522l-4.082,1.147a1.267,1.267,0,0,0-.635,2.025Z" transform="translate(-94.622 0)" fill="#fff"/>
      <path id="Path_104882" data-name="Path 104882" d="M69.043,54.236a1.757,1.757,0,0,0,0-2.485l-6.957-6.957A1.757,1.757,0,1,0,59.6,47.28l6.957,6.957A1.757,1.757,0,0,0,69.043,54.236Z" transform="translate(0 -39.093)" fill="#fff"/>
      <path id="Path_104883" data-name="Path 104883" d="M352.647,44.795a1.757,1.757,0,0,0-2.485,0l-6.957,6.957a1.757,1.757,0,0,0,2.485,2.485l6.957-6.957A1.757,1.757,0,0,0,352.647,44.795Z" transform="translate(-250.384 -39.093)" fill="#fff"/>
    </g>
  </g>
</svg>
