<svg xmlns="http://www.w3.org/2000/svg" width="26" height="26" viewBox="0 0 26 26">
  <g id="Group_82023" data-name="Group 82023" transform="translate(0 -0.2)">
    <circle id="Ellipse_42" data-name="Ellipse 42" cx="13" cy="13" r="13" transform="translate(0 0.2)" fill="#fff"/>
    <path id="heart-9" d="M13.042,1.233A3.809,3.809,0,0,0,10.209,0,3.564,3.564,0,0,0,7.983.768a4.554,4.554,0,0,0-.9.94,4.551,4.551,0,0,0-.9-.94A3.563,3.563,0,0,0,3.957,0,3.809,3.809,0,0,0,1.124,1.233,4.428,4.428,0,0,0,0,4.257,5.273,5.273,0,0,0,1.4,7.709a29.958,29.958,0,0,0,3.517,3.3c.487.415,1.04.886,1.613,1.388a.832.832,0,0,0,1.1,0c.574-.5,1.126-.973,1.614-1.388a29.945,29.945,0,0,0,3.517-3.3,5.272,5.272,0,0,0,1.4-3.451A4.427,4.427,0,0,0,13.042,1.233Zm0,0" transform="translate(5.917 7.656)" fill="#f76767"/>
  </g>
</svg>
