<svg xmlns="http://www.w3.org/2000/svg" width="13.053" height="15.535" viewBox="0 0 13.053 15.535">
  <g id="security" transform="translate(-17.112 0)">
    <path id="Path_104826" data-name="Path 104826" d="M30.148,4c-.008-.419-.016-.816-.016-1.2a.544.544,0,0,0-.544-.544,7.5,7.5,0,0,1-5.572-2.1.544.544,0,0,0-.758,0,7.5,7.5,0,0,1-5.571,2.1.544.544,0,0,0-.544.544c0,.383-.008.78-.016,1.2-.075,3.9-.177,9.249,6.332,11.5a.543.543,0,0,0,.356,0C30.325,13.249,30.223,7.9,30.148,4Zm-6.51,10.414c-5.582-2.028-5.5-6.469-5.422-10.393,0-.235.009-.464.012-.687a8.385,8.385,0,0,0,5.41-2.051,8.386,8.386,0,0,0,5.411,2.051c0,.224.007.452.012.687C29.136,7.945,29.22,12.387,23.638,14.414Z" transform="translate(0 0)" fill="#034243"/>
    <path id="Path_104827" data-name="Path 104827" d="M73.182,79.045l-2.624,2.624-1.12-1.12a.544.544,0,0,0-.769.769l1.5,1.5a.544.544,0,0,0,.769,0l3.009-3.009a.544.544,0,1,0-.769-.769Z" transform="translate(-47.671 -73.166)" fill="#034243"/>
  </g>
</svg>
