<svg xmlns="http://www.w3.org/2000/svg" xmlns:xlink="http://www.w3.org/1999/xlink" width="102.15" height="133.978" viewBox="0 0 102.15 133.978">
  <defs>
    <linearGradient id="linear-gradient" x1="0.5" x2="0.5" y2="1" gradientUnits="objectBoundingBox">
      <stop offset="0" stop-color="#dada7c"/>
      <stop offset="1" stop-color="#63c4ca"/>
    </linearGradient>
    <clipPath id="clip-path">
      <path id="Path_102979" data-name="Path 102979" d="M227.889.116c-.009,0-.009.03-.009.066a.56.56,0,0,1,.144-.094,1.293,1.293,0,0,1,.123-.041,1.141,1.141,0,0,0-.258.069" transform="translate(-227.88 -0.047)" fill="url(#linear-gradient)"/>
    </clipPath>
    <clipPath id="clip-path-2">
      <path id="Path_102980" data-name="Path 102980" d="M256.152,58.927a36.758,36.758,0,0,0-2.482-3.33c.836,1.106,1.675,2.212,2.482,3.33" transform="translate(-253.67 -55.597)" fill="url(#linear-gradient)"/>
    </clipPath>
    <clipPath id="clip-path-3">
      <rect id="Rectangle_54990" data-name="Rectangle 54990" width="102.15" height="107.194" fill="url(#linear-gradient)"/>
    </clipPath>
  </defs>
  <g id="Group_82007" data-name="Group 82007" transform="translate(-122 -368.383)">
    <g id="Group_82005" data-name="Group 82005" transform="translate(122 368.383)">
      <g id="Group_82000" data-name="Group 82000" transform="translate(52.083 0.011)">
        <g id="Group_81999" data-name="Group 81999" clip-path="url(#clip-path)">
          <rect id="Rectangle_54988" data-name="Rectangle 54988" width="0.267" height="0.135" transform="translate(0 0)" fill="url(#linear-gradient)"/>
        </g>
      </g>
      <g id="Group_82002" data-name="Group 82002" transform="translate(57.978 12.707)">
        <g id="Group_82001" data-name="Group 82001" clip-path="url(#clip-path-2)">
          <rect id="Rectangle_54989" data-name="Rectangle 54989" width="2.482" height="3.33" transform="translate(0 0)" fill="url(#linear-gradient)"/>
        </g>
      </g>
      <g id="Group_82004" data-name="Group 82004">
        <g id="Group_82003" data-name="Group 82003" clip-path="url(#clip-path-3)">
          <path id="Path_102981" data-name="Path 102981" d="M192.709,45.523a16.588,16.588,0,0,0,.549,4.665,48.583,48.583,0,0,1,1.385,14.639c-.105,1.387-.3,2.772-.535,4.148-.007.041-.014.08-.021.119l-.007.048-.366,1.991-4.6,25.086a8.983,8.983,0,0,0,.174,4.365c.567,2.094,1.746,5.8-.873,6.2a5.539,5.539,0,0,1-2.343-.336c-.722-.238-2.153-1.072-1.57-2.039a12.785,12.785,0,0,0,1.383-5.917c.306-4.58.917-14.356.917-14.356s-.071-2.617.112-5.984h-.025c.018-1.232.048-2.452.105-3.673.165-3.117.51-6.226.635-9.33a5.992,5.992,0,0,0-1.232-4.281.591.591,0,0,0-.357-.213c-.21-.018-.373.176-.489.347-1.412,2.057-1.511,4.644-1.252,7.049.288,2.619.64,5.234.882,7.858.041.441.08.882.112,1.323a.008.008,0,0,1,.007,0c.171,2.439.309,4.88.29,7.318-.023,3.332.05,4.514-.105,7.574a.07.07,0,0,0,0,.023c-.018.2-.037.411-.055.626-.171,2.03-.37,4.4-.416,5.2a37.851,37.851,0,0,1-.393,4.363,19.316,19.316,0,0,1-1,2.619c-.83,1.31.779,1.838.779,1.838-1.083.016-2.016-.379-2.062-1.566a13.747,13.747,0,0,1,.752-3.767,14.606,14.606,0,0,0,.361-2.247,15.529,15.529,0,0,0,.039-2.462l-.208-.93-.046-.2c-.016-.071-.027-.142-.041-.213-.647-3.463-1.495-6.889-2.274-10.326-.295-1.3-.61-2.592-.919-3.885-.363-1.513-.718-3.028-1.022-4.553l.094.418c-.03-.137-.059-.274-.089-.414v0c-.1-.491-.2-.985-.288-1.476-.517-2.839-.807-5.714-1.193-8.58-.171-1.262-.384-2.528-.471-3.8a43.022,43.022,0,0,1,1-9.965c.327-1.95.77-3.883,1-5.853.32-2.724-.574-5.291-1.307-7.851-1.278-4.425-2.9-8.754-3.46-13.35a12.575,12.575,0,0,1,2.327-9.128c1.79-2.471,3.664-4.887,5.529-7.307a10.739,10.739,0,0,0,1.9-5.435c.1-.7-.007-4.365,1.234-3.837.69.295.354,1.721.363,2.288.009,1.193,0,2.386-.066,3.577-.069,1.241.144,2.6-1.118,3.579-2.306,1.8-3.248,4.493-4.2,7.119-1.029,2.846-.905,5.856-.693,8.809.094,1.348-.021,2.884,1.307,3.9a2.674,2.674,0,0,0,2.711.251c.885-.558.734-1.415.549-2.222a2.724,2.724,0,0,0-.567-.962,7.426,7.426,0,0,1-1.518-6.107c.295-2.08,3.433-4.137,5.57-2.788,2.084,1.326,2.679,2.923,2.162,5.5a17.251,17.251,0,0,1-1.79,3.915,2.084,2.084,0,0,0,.066,2.478,2.136,2.136,0,0,0,2.706.021,3.4,3.4,0,0,0,1.431-2.642,24.13,24.13,0,0,0-.443-9.515c-.144-.5-.279-1-.43-1.5-.857-2.347-1.831-4.656-3.888-6.262-1.259-.978-1.049-2.338-1.118-3.579-.066-1.191-.073-2.384-.066-3.577.009-.519-.279-1.76.213-2.194a.561.561,0,0,1,.144-.094A1.293,1.293,0,0,1,186.7.011.628.628,0,0,1,186.812,0c1.01,0,.923,3.229,1.01,3.885a11.511,11.511,0,0,0,1.483,4.818,12.38,12.38,0,0,0,1.94,2.768c.366.4.731.811,1.086,1.232.837,1.106,1.675,2.212,2.482,3.33a.518.518,0,0,1,.1.135c.366.558.713,1.115,1.049,1.68a14.257,14.257,0,0,1,.759,1.5v.007a12.532,12.532,0,0,1,.539,8.07c-1.1,4.3-2.347,8.55-3.474,12.84a28.521,28.521,0,0,0-1.077,5.25" transform="translate(-134.354 0)" fill="url(#linear-gradient)"/>
          <path id="Path_102982" data-name="Path 102982" d="M95.312,109.91a16.972,16.972,0,0,1-.469,2.868c-.222.864-.448,1.73-.679,2.59a37.118,37.118,0,0,1-6.864,70.5,10.627,10.627,0,0,1,.263,4.738l1.5.491a42.6,42.6,0,0,0,6.249-81.192M42.575,149.542a37.17,37.17,0,0,1,23.349-34.466,39.109,39.109,0,0,1-.807-4.393c-.046-.382-.08-.759-.1-1.136A42.6,42.6,0,0,0,73.572,191.7a5.122,5.122,0,0,1-.4-1.842,11.614,11.614,0,0,1,.562-3.684,37.17,37.17,0,0,1-31.154-36.635" transform="translate(-28.613 -84.509)" fill="url(#linear-gradient)"/>
          <path id="Path_102983" data-name="Path 102983" d="M42.393,46.757c-.987,1.3-1.975,2.61-2.934,3.933A16.271,16.271,0,0,0,37.3,54.784C17.232,60.717,2.559,79.664,2.559,102.122A50.037,50.037,0,0,0,7.2,123.248a51.094,51.094,0,0,1,35.2-76.491" transform="translate(-0.001 -36.07)" fill="url(#linear-gradient)"/>
          <path id="Path_102984" data-name="Path 102984" d="M296.766,129.565a49.882,49.882,0,0,0,7.682-26.718A49.2,49.2,0,0,0,271.686,56.14c-.066-.213-.139-.423-.217-.633V55.44l-.281-.651a18.259,18.259,0,0,0-.942-1.865l-.018-.03c-.352-.592-.7-1.15-1.058-1.7a3.669,3.669,0,0,0-.279-.407c-.7-1.051-1.465-2.091-2.281-3.092a51.087,51.087,0,0,1,30.156,81.868" transform="translate(-205.675 -36.796)" fill="url(#linear-gradient)"/>
        </g>
      </g>
    </g>
    <text id="ETTAZENN" transform="translate(124.075 497.361)" fill="#22c1d3" font-size="18" font-family="JosefinSans-Bold, Josefin Sans" font-weight="700"><tspan x="0" y="0">ET</tspan><tspan y="0" letter-spacing="-0.059em">T</tspan><tspan y="0">AZENN</tspan></text>
  </g>
</svg>
