<svg xmlns="http://www.w3.org/2000/svg" width="14.953" height="16.555" viewBox="0 0 14.953 16.555">
  <g id="notification-7" transform="translate(-17.958)">
    <g id="Group_82224" data-name="Group 82224" transform="translate(17.958 0)">
      <path id="Path_104825" data-name="Path 104825" d="M30.775,10.47V7.324A5.5,5.5,0,0,0,27.221,2.19a1.868,1.868,0,0,0,.037-.366,1.824,1.824,0,1,0-3.647,0,1.953,1.953,0,0,0,.035.355,5.336,5.336,0,0,0-3.551,5.031v3.26a.211.211,0,0,1-.211.211,1.916,1.916,0,0,0-1.917,1.688,1.87,1.87,0,0,0,1.861,2.051h3.22a2.4,2.4,0,0,0,4.774,0h3.22A1.87,1.87,0,0,0,32.9,12.368a1.918,1.918,0,0,0-1.917-1.688.21.21,0,0,1-.211-.211Zm-5.34-9.4a.757.757,0,0,1,.756.756.653.653,0,0,1-.011.1,4.732,4.732,0,0,0-.55-.051,5.5,5.5,0,0,0-.94.053.653.653,0,0,1-.011-.1.757.757,0,0,1,.756-.758Zm0,14.419a1.34,1.34,0,0,1-1.308-1.068h2.617A1.339,1.339,0,0,1,25.435,15.487Zm6.406-3.017a.8.8,0,0,1-.8.881H19.827a.8.8,0,0,1-.8-.881.839.839,0,0,1,.854-.721,1.281,1.281,0,0,0,1.279-1.279V7.209a4.274,4.274,0,0,1,4.272-4.272c.053,0,.1,0,.158,0a4.369,4.369,0,0,1,4.115,4.384V10.47a1.281,1.281,0,0,0,1.279,1.279A.841.841,0,0,1,31.84,12.469Z" transform="translate(-17.958 0)" fill="#034243"/>
    </g>
  </g>
</svg>
