<svg id="Group_82104" data-name="Group 82104" xmlns="http://www.w3.org/2000/svg" width="31.713" height="31.713" viewBox="0 0 31.713 31.713">
  <path id="Rectangle_26771" data-name="Rectangle 26771" d="M-575.723,468.553h0a15.857,15.857,0,0,1,15.857,15.857h0a15.857,15.857,0,0,1-15.857,15.857h0a15.857,15.857,0,0,1-15.857-15.857h0A15.857,15.857,0,0,1-575.723,468.553Z" transform="translate(591.579 -468.553)" fill="rgba(235,77,61,0.08)"/>
  <g id="fi-rr-power" transform="translate(7.652 6.994)">
    <path id="Path_104674" data-name="Path 104674" d="M10.169,3.5h0a.668.668,0,0,0,.412.606,5.895,5.895,0,1,1-4.753,0A.67.67,0,0,0,6.239,3.5h0a.655.655,0,0,0-.9-.608,7.2,7.2,0,1,0,5.731,0,.655.655,0,0,0-.9.609Z" transform="translate(0 -0.982)" fill="#eb4d3d"/>
    <rect id="Rectangle_52210" data-name="Rectangle 52210" width="1.31" height="5.239" rx="0.655" transform="translate(7.549)" fill="#eb4d3d"/>
  </g>
</svg>
