<svg xmlns="http://www.w3.org/2000/svg" width="31.746" height="22.689" viewBox="0 0 31.746 22.689">
  <g id="Group_72480" data-name="Group 72480" transform="translate(-345.5 -367.304)">
    <path id="Line" d="M0,0V18.993" transform="translate(346 370.5)" fill="none" stroke="#b8babf" stroke-linecap="round" stroke-width="1" opacity="0.75"/>
    <g id="lock-2" transform="translate(356.754 367.304)">
      <path id="Path_102045" data-name="Path 102045" d="M17.718,7.788V6.472a6.472,6.472,0,1,0-12.944,0V7.788A4.623,4.623,0,0,0,2,12.019v5.547a4.628,4.628,0,0,0,4.623,4.623h9.246a4.628,4.628,0,0,0,4.623-4.623V12.019A4.623,4.623,0,0,0,17.718,7.788ZM6.623,6.472a4.623,4.623,0,1,1,9.246,0V7.4H6.623ZM18.642,17.567a2.774,2.774,0,0,1-2.774,2.774H6.623a2.774,2.774,0,0,1-2.774-2.774V12.019A2.774,2.774,0,0,1,6.623,9.246h9.246a2.774,2.774,0,0,1,2.774,2.774Z" fill="#b8babf"/>
      <path id="Path_102046" data-name="Path 102046" d="M11.925,14a.925.925,0,0,0-.925.925v1.849a.925.925,0,0,0,1.849,0V14.925A.925.925,0,0,0,11.925,14Z" transform="translate(-0.679 -1.056)" fill="#b8babf"/>
    </g>
  </g>
</svg>
