<svg xmlns="http://www.w3.org/2000/svg" width="20.152" height="20.152" viewBox="0 0 20.152 20.152">
  <g id="profile-user" transform="translate(0 -0.001)">
    <path id="Path_102870" data-name="Path 102870" d="M10.076,0A10.076,10.076,0,1,0,20.152,10.077,10.076,10.076,0,0,0,10.076,0Zm0,3.013A3.333,3.333,0,1,1,6.744,6.347,3.333,3.333,0,0,1,10.076,3.014Zm0,14.5a7.4,7.4,0,0,1-4.815-1.776,1.42,1.42,0,0,1-.5-1.079A3.361,3.361,0,0,1,8.138,11.3h3.878a3.356,3.356,0,0,1,3.372,3.36,1.417,1.417,0,0,1-.5,1.079A7.392,7.392,0,0,1,10.074,17.518Z" transform="translate(0 0)" fill="#9aa1aa"/>
  </g>
</svg>
