<svg xmlns="http://www.w3.org/2000/svg" width="32.442" height="20.374" viewBox="0 0 32.442 20.374">
  <g id="Group_76708" data-name="Group 76708" transform="translate(-345.5 -370)">
    <path id="Line" d="M0,0V18.993" transform="translate(346 370.5)" fill="none" stroke="#b8babf" stroke-linecap="round" stroke-width="1" opacity="0.75"/>
    <path id="envelope-open-5" d="M18.606,6.712l-5.736-5.5A4.164,4.164,0,0,0,7.025,1.2L1.276,6.712A4.165,4.165,0,0,0,0,9.7v6.041a4.147,4.147,0,0,0,4.142,4.142h11.6a4.147,4.147,0,0,0,4.142-4.142V9.7A4.163,4.163,0,0,0,18.606,6.712ZM8.184,2.386a2.5,2.5,0,0,1,3.528.013L17.3,7.755l-5.6,5.6a2.547,2.547,0,0,1-3.514,0l-5.6-5.6ZM18.226,15.742a2.485,2.485,0,0,1-2.485,2.485H4.142a2.485,2.485,0,0,1-2.485-2.485V9.7a2.5,2.5,0,0,1,.049-.479L7.013,14.53a4.162,4.162,0,0,0,5.857,0l5.307-5.307a2.5,2.5,0,0,1,.049.479Z" transform="translate(358.059 370.489)" fill="#b8babf"/>
  </g>
</svg>
