<svg xmlns="http://www.w3.org/2000/svg" xmlns:xlink="http://www.w3.org/1999/xlink" width="82.273" height="82.273" viewBox="0 0 82.273 82.273">
  <defs>
    <linearGradient id="linear-gradient" x1="0.5" x2="0.5" y2="1" gradientUnits="objectBoundingBox">
      <stop offset="0" stop-color="#dada7c"/>
      <stop offset="1" stop-color="#63c4ca"/>
    </linearGradient>
  </defs>
  <g id="Group_81925" data-name="Group 81925" transform="translate(-173.863 -165.066)">
    <path id="Path" d="M40.884,0h.5C50,0,57.3,1.718,63.333,4.945a33.64,33.64,0,0,1,14,14c3.227,6.033,4.945,13.333,4.945,21.944v.5c0,8.611-1.718,15.911-4.945,21.944a33.64,33.64,0,0,1-14,14C57.3,80.555,50,82.273,41.389,82.273h-.5c-8.611,0-15.911-1.718-21.944-4.945a33.64,33.64,0,0,1-14-14C1.718,57.3,0,50,0,41.389v-.5C0,32.273,1.718,24.973,4.945,18.94a33.641,33.641,0,0,1,14-14C24.973,1.718,32.273,0,40.884,0Z" transform="translate(173.863 165.066)" fill="url(#linear-gradient)"/>
    <g id="user-27" transform="translate(198.314 186)">
      <path id="Path_102916" data-name="Path 102916" d="M96.666,19.268a9.322,9.322,0,0,0,6.812-2.823A9.322,9.322,0,0,0,106.3,9.634a9.323,9.323,0,0,0-2.823-6.812,9.632,9.632,0,0,0-13.624,0,9.322,9.322,0,0,0-2.823,6.811,9.322,9.322,0,0,0,2.823,6.812A9.324,9.324,0,0,0,96.666,19.268Zm0,0" transform="translate(-80.232)" fill="#fff"/>
      <path id="Path_102917" data-name="Path 102917" d="M33.291,258.753a23.8,23.8,0,0,0-.324-2.527,19.908,19.908,0,0,0-.622-2.541,12.554,12.554,0,0,0-1.045-2.37,8.947,8.947,0,0,0-1.575-2.053,6.947,6.947,0,0,0-2.263-1.422,7.822,7.822,0,0,0-2.889-.523,2.933,2.933,0,0,0-1.566.664c-.469.306-1.018.66-1.631,1.052a9.344,9.344,0,0,1-2.111.93,8.194,8.194,0,0,1-5.163,0,9.322,9.322,0,0,1-2.109-.93c-.607-.388-1.156-.742-1.633-1.052a2.929,2.929,0,0,0-1.565-.664,7.81,7.81,0,0,0-2.888.523,6.939,6.939,0,0,0-2.263,1.422,8.947,8.947,0,0,0-1.575,2.053,12.579,12.579,0,0,0-1.045,2.37A19.956,19.956,0,0,0,.4,256.225a23.711,23.711,0,0,0-.324,2.528c-.053.765-.08,1.56-.08,2.362a6.642,6.642,0,0,0,1.973,5.025,7.1,7.1,0,0,0,5.083,1.854h19.26a7.1,7.1,0,0,0,5.083-1.854,6.639,6.639,0,0,0,1.973-5.025C33.372,260.309,33.344,259.514,33.291,258.753Zm0,0" transform="translate(0 -227.995)" fill="#fff"/>
    </g>
  </g>
</svg>
