<svg xmlns="http://www.w3.org/2000/svg" xmlns:xlink="http://www.w3.org/1999/xlink" width="54.52" height="75.7" viewBox="0 0 54.52 75.7">
  <defs>
    <linearGradient id="linear-gradient" x1="0.5" x2="0.5" y2="1" gradientUnits="objectBoundingBox">
      <stop offset="0" stop-color="#dada7c"/>
      <stop offset="1" stop-color="#63c4ca"/>
    </linearGradient>
  </defs>
  <path id="Path_104864" data-name="Path 104864" d="M-18.8-37.6c7.6-3.3,12.9-8.8,12.9-16.6,0-13.7-15.6-18-26.6-18-9.1,0-16.6,2.8-21.3,7l3.5,14.8c2.8-3,9.1-4.4,14-4.4,5.2,0,10.4,1.5,10.4,6.1,0,3.8-4.9,6.1-10.5,6.1h-8.4v14.7h9.1c7.4,0,12.2,2,12.2,6,0,4.7-5.2,6.3-11.3,6.3a32.579,32.579,0,0,1-17.5-4.9L-55.8-4.4c5.7,3.9,13.2,5.9,21.4,5.9,14.7,0,31-6.2,31-21.4C-3.4-29.4-10-35.5-18.8-37.6Z" transform="translate(56.92 73.2)" stroke="#fff" stroke-width="2" fill="url(#linear-gradient)"/>
</svg>
