<svg xmlns="http://www.w3.org/2000/svg" width="24.294" height="24.294" viewBox="0 0 24.294 24.294">
  <path id="Path_102869" data-name="Path 102869" d="M13.147,1A12.147,12.147,0,1,0,25.294,13.147,12.147,12.147,0,0,0,13.147,1Zm6.646,12.314a.769.769,0,0,1-.977.112V17.88a1.744,1.744,0,0,1-1.743,1.745H9.218a1.744,1.744,0,0,1-1.739-1.742V13.429a.8.8,0,0,1-.977-.112.81.81,0,0,1,0-1.145l1.215-1.215L12.574,6.1a.81.81,0,0,1,1.145,0l4.859,4.859,1.215,1.215a.81.81,0,0,1,0,1.142Z" transform="translate(-1 -1)" fill="#9aa1aa"/>
</svg>
