<svg xmlns="http://www.w3.org/2000/svg" xmlns:xlink="http://www.w3.org/1999/xlink" width="35.5" height="25" viewBox="0 0 35.5 25">
  <defs>
    <clipPath id="clip-path">
      <rect id="Rectangle_5739" data-name="Rectangle 5739" width="25" height="25" transform="translate(0.105 0.391)" fill="#b8babf"/>
    </clipPath>
  </defs>
  <g id="Group_72480" data-name="Group 72480" transform="translate(-345.5 -365.304)">
    <path id="Line" d="M0,0V18.993" transform="translate(346 370.5)" fill="none" stroke="#b8babf" stroke-linecap="round" stroke-width="1" opacity="0.75"/>
    <g id="Group_82011" data-name="Group 82011" transform="translate(355.896 364.913)">
      <g id="Mask_Group_706" data-name="Mask Group 706" transform="translate(0 0)" clip-path="url(#clip-path)">
        <g id="fi-rr-user" transform="translate(4.045 2.407)">
          <path id="Path_50035" data-name="Path 50035" d="M12.933,10.865A5.433,5.433,0,1,0,7.5,5.433a5.433,5.433,0,0,0,5.433,5.433Zm0-9.054A3.622,3.622,0,1,1,9.311,5.433a3.622,3.622,0,0,1,3.622-3.622Z" transform="translate(-4.784)" fill="#b8babf"/>
          <path id="Path_50036" data-name="Path 50036" d="M11.9,17.5A8.158,8.158,0,0,0,3.75,25.649a.905.905,0,1,0,1.811,0,6.338,6.338,0,1,1,12.676,0,.905.905,0,1,0,1.811,0A8.158,8.158,0,0,0,11.9,17.5Z" transform="translate(-3.75 -4.824)" fill="#b8babf"/>
        </g>
      </g>
    </g>
  </g>
</svg>
