<svg xmlns="http://www.w3.org/2000/svg" width="19.441" height="19.441" viewBox="0 0 19.441 19.441">
  <path id="categories" d="M15.554,8.555V14A1.555,1.555,0,0,1,14,15.554H8.555A1.555,1.555,0,0,1,7,14V8.555A1.555,1.555,0,0,1,8.555,7H14A1.555,1.555,0,0,1,15.554,8.555ZM24.886,7H19.442a1.555,1.555,0,0,0-1.555,1.555V14a1.555,1.555,0,0,0,1.555,1.555h5.444A1.555,1.555,0,0,0,26.441,14V8.555A1.555,1.555,0,0,0,24.886,7ZM14,17.887H8.555A1.555,1.555,0,0,0,7,19.442v5.444a1.555,1.555,0,0,0,1.555,1.555H14a1.555,1.555,0,0,0,1.555-1.555V19.442A1.555,1.555,0,0,0,14,17.887Zm8.165,0a4.277,4.277,0,1,0,4.277,4.277,4.277,4.277,0,0,0-4.277-4.277Z" transform="translate(-7 -7)" fill="#9aa1aa"/>
</svg>
