<svg xmlns="http://www.w3.org/2000/svg" width="21.079" height="21.079" viewBox="0 0 21.079 21.079">
  <g id="video-2" transform="translate(0.013 0)">
    <path id="Path_104725" data-name="Path 104725" d="M-.013,8v8.623a4.792,4.792,0,0,0,4.791,4.791h11.5a4.792,4.792,0,0,0,4.791-4.791V8ZM13.87,14.582,8.121,17.821a.908.908,0,0,1-.469.125.972.972,0,0,1-.958-.958V10.51a.962.962,0,0,1,1.428-.834l5.749,3.238a.955.955,0,0,1,0,1.667Z" transform="translate(0 -0.335)" fill="#9aa1aa"/>
    <path id="Path_104726" data-name="Path 104726" d="M5.841,5.783H-.013V4.825A4.782,4.782,0,0,1,2.162.81L3.3,2.362Z" transform="translate(0 -0.034)" fill="#9aa1aa"/>
    <path id="Path_104727" data-name="Path 104727" d="M14.65,5.749H8.4L5.567,1.916,4.187.067A4.073,4.073,0,0,1,4.953,0h5.481l1.4,1.916Z" transform="translate(-0.176 0)" fill="#9aa1aa"/>
    <path id="Path_104728" data-name="Path 104728" d="M21.618,4.791v.958H17.4L14.575,1.916,13.167,0h3.66a4.792,4.792,0,0,1,4.791,4.791Z" transform="translate(-0.552 0)" fill="#9aa1aa"/>
  </g>
</svg>
